<?xml version="1.0" encoding="utf-8"?>
<!-- Generator: Adobe Illustrator 26.0.2, SVG Export Plug-In . SVG Version: 6.00 Build 0)  -->
<svg version="1.1" id="Capa_1" xmlns="http://www.w3.org/2000/svg" xmlns:xlink="http://www.w3.org/1999/xlink" x="0px" y="0px"
	 viewBox="0 0 700 700" style="enable-background:new 0 0 700 700;" xml:space="preserve">
<style type="text/css">
	.st0{fill:#FFFFFF;}
</style>
<g>
	<path class="st0" d="M603.8,227.5h-61.2c0-14.5-11.8-26.2-26.2-26.2h-35c-14.5,0-26.2,11.8-26.2,26.2H345l-26.1-28
		c10.9-12.2,17-28.1,17-44.7c0-37.1-30.2-67.3-67.3-67.3c-26.4,0-50.2,15.5-61.1,39.1c-26.7,1-50.4,18-60.1,42.6
		c-33.6,3.7-59.9,32.5-59.9,66.9c0,37.1,30.2,67.3,67.3,67.3c8.8,0,17.6-1.8,25.7-5.1l49.9,40.8l56,53.3l-2.5,22.8l-53.7,66
		c-2.4,3-2.6,7.2-0.5,10.4l70.1,105.4c6.5,9.8,17.4,15.6,29.2,15.6h18.8c9.4,0,18.2-3.6,24.7-10.1l7.4-7.4h223.7
		c4.8,0,8.8-3.9,8.8-8.8v-350C612.5,231.4,608.6,227.5,603.8,227.5L603.8,227.5z M472.5,227.5c0-4.8,3.9-8.8,8.8-8.8h35
		c4.8,0,8.8,3.9,8.8,8.8V245c0,4.8-3.9,8.8-8.8,8.8h-35c-4.8,0-8.8-3.9-8.8-8.8V227.5z M332.5,256.1v62.5c-0.4,0.5-0.8,0.9-1.1,1.4
		c-3.9,7.8-18.1,8.2-18.2,8.2c-4.8,0-8.7,3.9-8.8,8.7c0,0.1-0.3,14.3-8.2,18.2c-4.3,2.2-6.1,7.4-3.9,11.7c1.5,3.1,4.6,4.8,7.8,4.8
		c1.3,0,2.6-0.3,3.9-0.9c11.4-5.7,15.6-17.8,17-25.9c3.3-0.6,7.4-1.7,11.4-3.6V384l-32.9-3.4l-50.5-48L332.5,256.1z M181.8,279.3
		c-1.4,0-2.8,0.3-4.1,1c-7,3.7-15,5.6-22.9,5.6c-27.5,0-49.8-22.3-49.8-49.8c0-27,22-49.4,49-49.8c3.8-0.1,7.2-2.6,8.3-6.3
		c6.1-21.2,25.8-36,47.9-36c1,0,1.9,0,2.8,0.1c3.8,0.2,7.5-2.1,8.8-5.8c7-19.9,25.9-33.3,47-33.3c27.5,0,49.8,22.3,49.8,49.8
		c0,14.5-6.4,28.3-17.4,37.8c-1.8,1.6-2.9,3.8-3.1,6.2c-0.1,2.4,0.7,4.7,2.3,6.5l28.5,30.5l-31,28.4l-61.9,56.8l-48.6-39.7
		C185.8,280,183.8,279.3,181.8,279.3L181.8,279.3z M347.9,595h-18.8c-5.9,0-11.3-2.9-14.6-7.8l-66.5-100l51.2-63
		c1.1-1.3,1.7-2.9,1.9-4.6l2.3-21l27.8,2.9l1.3,0.1v104.1l-7-6.1c-3.6-3.2-9.2-2.8-12.3,0.8c-3.2,3.6-2.8,9.2,0.8,12.3l21.5,18.8
		c0.1,0.1,0.3,0.1,0.4,0.2c0.3,0.2,0.5,0.4,0.8,0.6c0.4,0.2,0.8,0.4,1.2,0.6c0.2,0.1,0.4,0.2,0.5,0.2c0.9,0.3,1.8,0.5,2.7,0.5
		c0.1,0,0.1,0,0.2,0c0.1,0,0.2-0.1,0.3-0.1c1,0,2-0.2,3-0.6c0.1-0.1,0.3-0.1,0.4-0.1c0.1,0,0.1,0,0.2-0.1l46.9-23l24.4,24.4
		l-56.1,55.7C357,593.2,352.6,595,347.9,595L347.9,595z M431.3,496.7l8.7,8.7c1,1,1.1,2.1,1.1,2.6s-0.1,1.7-1.1,2.6l-11.2,11.2
		l-22.7-22.7l28.6-29c0.9-1,2.1-1.1,2.7-1.1c0.8-0.2,1.7,0.1,2.7,1.2c1.4,1.5,1.4,3.7,0,5.2l-8.7,8.9
		C427.9,487.8,427.9,493.3,431.3,496.7L431.3,496.7z M595,577.5H397.7l37.2-37c0,0,0,0,0.1,0l17.4-17.4c8.3-8.3,8.3-21.7,0-30
		l-2.5-2.5l2.6-2.7c8.1-8.2,8.2-21.2,0.2-29.6c-4-4.2-9.4-6.5-15.2-6.6h-0.2c-5.7,0-11.1,2.2-15.1,6.3l-33.6,34.1L350,511V245h105
		c0,14.5,11.8,26.2,26.2,26.2h35c14.5,0,26.2-11.8,26.2-26.2H595L595,577.5z"/>
	<path class="st0" d="M481.2,323.7c-38.6,0-70,31.4-70,70c0,4.8,3.9,8.8,8.8,8.8h122.5c4.8,0,8.8-3.9,8.8-8.8
		C551.2,355.2,519.8,323.7,481.2,323.7z M429.5,385c4.2-24.8,25.8-43.8,51.8-43.8s47.6,19,51.8,43.8H429.5z"/>
	<path class="st0" d="M393.8,428.7c0,4.8,3.9,8.8,8.8,8.8H560c4.8,0,8.8-3.9,8.8-8.8s-3.9-8.8-8.8-8.8H402.5
		C397.7,420,393.8,423.9,393.8,428.7z"/>
	<path class="st0" d="M472.5,315H490c4.8,0,8.8-3.9,8.8-8.8s-3.9-8.8-8.8-8.8h-17.5c-4.8,0-8.8,3.9-8.8,8.8S467.7,315,472.5,315z"/>
	<path class="st0" d="M247.6,259.9c1.7,1.7,3.9,2.6,6.2,2.6s4.5-0.9,6.2-2.6c3.4-3.4,3.4-9,0-12.4l-37.1-37.1c-3.4-3.4-9-3.4-12.4,0
		c-3.4,3.4-3.4,9,0,12.4L247.6,259.9z"/>
	<path class="st0" d="M230.4,277.1L193.3,240c-3.4-3.4-9-3.4-12.4,0c-3.4,3.4-3.4,9,0,12.4l37.1,37.1c1.7,1.7,3.9,2.6,6.2,2.6
		s4.5-0.9,6.2-2.6C233.8,286.1,233.8,280.5,230.4,277.1z"/>
	<path class="st0" d="M277.1,230.4c1.7,1.7,3.9,2.6,6.2,2.6s4.5-0.9,6.2-2.6c3.4-3.4,3.4-9,0-12.4l-37.1-37.1c-3.4-3.4-9-3.4-12.4,0
		c-3.4,3.4-3.4,9,0,12.4L277.1,230.4z"/>
</g>
</svg>
