<?xml version="1.0" encoding="utf-8"?>
<!-- Generator: Adobe Illustrator 26.0.2, SVG Export Plug-In . SVG Version: 6.00 Build 0)  -->
<svg version="1.1" id="Capa_1" xmlns="http://www.w3.org/2000/svg" xmlns:xlink="http://www.w3.org/1999/xlink" x="0px" y="0px"
	 viewBox="0 0 700 700" style="enable-background:new 0 0 700 700;" xml:space="preserve">
<style type="text/css">
	.st0{fill:#FFFFFF;}
</style>
<g>
	<path class="st0" d="M358.8,568.8c0,4.8-3.9,8.8-8.8,8.8s-8.8-3.9-8.8-8.8c0-4.8,3.9-8.8,8.8-8.8S358.8,564,358.8,568.8"/>
	<path class="st0" d="M443,467.1c39.9-20.8,71.7-54.4,90.3-95.5c18.6-41,22.8-87.1,12.1-130.9c-10.7-43.7-35.8-82.6-71.2-110.4
		C438.8,102.5,395,87.4,350,87.4s-88.8,15.1-124.2,42.9c-35.4,27.8-60.5,66.7-71.2,110.4c-10.7,43.8-6.5,89.8,12.1,130.9
		c18.6,41,50.4,74.7,90.3,95.5c-112.5,8.5-169.4,32.4-169.4,71.1c0,61.5,142.8,74.4,262.5,74.4s262.5-12.9,262.5-74.4
		C612.5,499.5,555.5,475.6,443,467.1L443,467.1z M166.2,288.8c0-44.2,15.9-86.9,44.9-120.4c28.9-33.4,69-55.3,112.7-61.6
		c43.8-6.3,88.3,3.4,125.5,27.3c37.2,23.9,64.5,60.4,77,102.8c12.5,42.4,9.2,87.9-9.2,128.1c-18.4,40.2-50.6,72.4-90.8,90.8
		c-1,0.4-1.8,1-2.6,1.8l-68,68.3c-3.1,2.8-7.8,2.9-11.1,0.4l-24.4-24.5l-0.1-0.1l-43.9-44h0c-0.7-0.7-1.6-1.3-2.6-1.8
		c-32-14.7-59.2-38.2-78.2-67.9C176.5,358.5,166.3,324,166.2,288.8L166.2,288.8z M350,595.1c-151.1,0-245-21.8-245-56.9
		c0-28.7,62.7-48.6,172.1-54.8l17,17c-55,3.1-127.8,12-127.8,37.8c0,29.1,92.9,36.8,148.3,38.8h0.3h0c4.8,0.1,8.8-3.8,8.9-8.6
		c0.1-4.8-3.8-8.8-8.6-8.9c-83.8-3-122.7-15-130.5-21.3c7.7-6.1,45.4-17.8,126.1-21.1l21.9,22c4.7,4.1,10.8,6.4,17.1,6.4
		c6.6,0,12.9-2.4,17.9-6.8l21.5-21.6c80.7,3.3,118.4,15,126.1,21.1c-7.9,6.2-46.7,18.3-130.5,21.3c-4.8,0.1-8.7,4.1-8.6,8.9
		c0.1,4.8,4.1,8.7,8.9,8.6h0.3c55.4-2,148.3-9.7,148.3-38.8c0-25.8-72.9-34.7-127.8-37.8l17-17c109.4,6.2,172.1,26.2,172.1,54.8
		C595,573.3,501.1,595.1,350,595.1L350,595.1z"/>
	<path class="st0" d="M516.2,288.8c0-44.1-17.5-86.4-48.7-117.6c-31.2-31.2-73.5-48.7-117.5-48.7s-86.4,17.5-117.6,48.7
		c-31.2,31.2-48.7,73.5-48.7,117.6s17.5,86.4,48.7,117.5c31.2,31.2,73.5,48.7,117.5,48.7c44.1,0,86.3-17.6,117.5-48.7
		C498.7,375.2,516.2,332.9,516.2,288.8L516.2,288.8z M201.2,288.8c0-39.4,15.7-77.3,43.6-105.2c27.9-27.9,65.7-43.6,105.2-43.6
		s77.3,15.7,105.2,43.6c27.9,27.9,43.6,65.7,43.6,105.2s-15.7,77.3-43.6,105.2c-27.9,27.9-65.7,43.6-105.2,43.6
		c-39.4,0-77.2-15.7-105.1-43.6C217,366.1,201.3,328.3,201.2,288.8L201.2,288.8z"/>
	<path class="st0" d="M428.8,367.6v-64.2c16.9-6.1,29.5-20.4,33.4-37.9c3.9-17.5-1.3-35.8-14-48.5c-12.6-12.7-30.9-18.1-48.4-14.3
		c-4.5-14.2-14.9-25.7-28.4-31.8c-13.6-6.1-29.1-6.1-42.6,0c-13.6,6.1-23.9,17.6-28.4,31.8c-17.5-3.8-35.8,1.6-48.4,14.3
		c-12.6,12.7-17.9,31-14,48.5c3.9,17.5,16.5,31.8,33.4,37.9v64.2c0,7,2.8,13.6,7.7,18.6s11.6,7.7,18.6,7.7h105
		c7,0,13.6-2.8,18.6-7.7S428.7,374.5,428.8,367.6L428.8,367.6z M281.8,288.1c-8.7-1.8-16.4-6.9-21.6-14.2
		c-5.1-7.3-7.3-16.2-6.1-25.1c1.7-11.8,9.2-22,20.1-26.9s23.5-4.1,33.5,2.4c10,6.4,16.1,17.6,16.1,29.5c0,4.8,3.9,8.8,8.8,8.8
		s8.8-3.9,8.8-8.8c0-18.1-9.3-34.9-24.7-44.5c2.9-10.5,10.5-19,20.6-23.1c10.1-4,21.5-3.1,30.8,2.6c9.3,5.6,15.4,15.3,16.5,26.2
		c0.3,2.8,2,5.2,4.4,6.6c2.4,1.4,5.4,1.5,7.9,0.4c9.1-4.2,19.5-4.3,28.7-0.3c9.2,4,16.2,11.8,19.3,21.3s1.9,19.9-3.1,28.5
		c-5.1,8.6-13.6,14.7-23.4,16.6c-4.1,0.8-7,4.4-7,8.6v35.9H288.7v-35.9C288.7,292.5,285.8,289,281.8,288.1L281.8,288.1z
		 M288.8,367.6v-17.5h122.5v17.5c0,2.3-0.9,4.5-2.6,6.2s-3.9,2.6-6.2,2.6h-105C292.7,376.3,288.8,372.4,288.8,367.6z"/>
</g>
</svg>
