<?xml version="1.0" encoding="utf-8"?>
<!-- Generator: Adobe Illustrator 26.0.2, SVG Export Plug-In . SVG Version: 6.00 Build 0)  -->
<svg version="1.1" id="Capa_1" xmlns="http://www.w3.org/2000/svg" xmlns:xlink="http://www.w3.org/1999/xlink" x="0px" y="0px"
	 viewBox="0 0 700 700" style="enable-background:new 0 0 700 700;" xml:space="preserve">
<style type="text/css">
	.st0{fill:#FFFFFF;}
</style>
<g>
	<path class="st0" d="M350,80.9C201.6,80.9,80.9,201.6,80.9,350S201.6,619.1,350,619.1S619.1,498.4,619.1,350S498.4,80.9,350,80.9z
		 M350,101.5c137,0,248.5,111.5,248.5,248.5S487,598.5,350,598.5S101.5,487,101.5,350S213,101.5,350,101.5z"/>
	<g>
		<g>
			<g>
				<path class="st0" d="M384.2,327.9v40.4h51.1V394h-51.1v28c0,30.4-20,56.5-51.5,56.5c-11.4,0-28.2-2.5-40.4-10.7v-27.9
					c9.3,9.3,24.3,13.2,36.8,13.2c17.2,0,27.5-15,27.5-31.1v-27.9h-51.5v-25.7h51.5V328c0-34.3,15.7-68.3,49.7-80.8H282.6
					c-25.7,0-47.9,11.1-47.9,39.7c0,25,22.9,36.8,45.1,37.9l-7.2,25.7c-37.2-2.5-65.8-24.7-65.8-64c0-44,37.2-65.1,77.6-65.1H451
					h14.6v25.4c-1.4,0-11.7,0-13.1,0.1C409.9,249.2,384.2,285.4,384.2,327.9z"/>
			</g>
		</g>
	</g>
	<g>
		<g>
			<g>
				<path class="st0" d="M471.3,476.3c0,5.7-4.7,9.9-10.2,9.9c-4.4,0-8.2-2-10.9-5.4l3-2.9c1.9,2.6,4.5,4.3,7.9,4.3
					c3.3,0,6.2-2.6,6.2-6s-2.3-5.9-5.8-5.9c-1.6,0-3.2,0.6-4.3,1.8l-2.6-3.3l9.6-9.1h-13v-4h18.2l0.1,3.9l-7.9,7.5
					c0.3-0.1,0.6-0.1,0.9-0.1C467.5,467.2,471.3,471.3,471.3,476.3z"/>
			</g>
		</g>
		<g>
			<g>
				<path class="st0" d="M423.8,469.2c0-4,2.8-6.8,6.4-8c-2.5-1-4.5-3.5-4.5-6.2c0-4.9,4.6-8.2,9.5-8.2s9.5,3.4,9.5,8.2
					c0,2.9-2,5.2-4.6,6.2c3.7,1.1,6.4,4,6.4,8c0,6.2-4.9,9.8-11.3,9.8S423.8,475.3,423.8,469.2z M442.2,469c0-3.7-3.7-5.8-7-5.8
					c-3.4,0-7,2.2-7,5.8c0,3.5,3.1,5.9,7,5.9C439,474.9,442.2,472.6,442.2,469z M440.4,455c0-2.6-2.4-4.6-5.2-4.6
					c-2.9,0-5.3,2-5.3,4.6c0,2.7,2.8,4.4,5.3,4.4C437.7,459.4,440.4,457.7,440.4,455z"/>
			</g>
		</g>
	</g>
</g>
</svg>
