<?xml version="1.0" encoding="utf-8"?>
<!-- Generator: Adobe Illustrator 26.0.2, SVG Export Plug-In . SVG Version: 6.00 Build 0)  -->
<svg version="1.1" id="Capa_1" xmlns="http://www.w3.org/2000/svg" xmlns:xlink="http://www.w3.org/1999/xlink" x="0px" y="0px"
	 viewBox="0 0 700 700" style="enable-background:new 0 0 700 700;" xml:space="preserve">
<style type="text/css">
	.st0{fill:#FFFFFF;}
</style>
<g>
	<path class="st0" d="M367.2,437.5c-0.3,0.7-0.4,1.4-0.4,2.1c0,0.7,0.2,1.5,0.4,2.1c0.3,0.7,0.7,1.3,1.2,1.8
		c0.3,0.2,0.6,0.5,0.8,0.7c0.3,0.2,0.7,0.4,1,0.5c0.3,0.2,0.7,0.3,1,0.3c0.4,0.1,0.7,0.1,1.1,0.1c0.3,0,0.7-0.1,1.1-0.1
		c0.4-0.1,0.7-0.2,1.1-0.3c0.3-0.1,0.7-0.3,1-0.5c0.3-0.2,0.6-0.4,0.9-0.7c0.5-0.6,0.9-1.1,1.2-1.8c0.3-0.7,0.4-1.4,0.4-2.1
		c0-0.7-0.2-1.5-0.4-2.1c-0.3-0.7-0.7-1.3-1.2-1.8c-0.3-0.2-0.6-0.4-0.9-0.7c-0.3-0.2-0.6-0.4-1-0.5c-0.3-0.2-0.7-0.3-1.1-0.3
		c-0.7-0.2-1.5-0.2-2.2,0c-0.3,0.1-0.7,0.2-1,0.3c-0.3,0.1-0.7,0.3-1,0.5c-0.3,0.2-0.6,0.4-0.8,0.7
		C367.9,436.2,367.5,436.8,367.2,437.5L367.2,437.5z"/>
	<path class="st0" d="M376.4,469.2c-0.3-0.2-0.6-0.5-0.9-0.7c-0.3-0.2-0.6-0.4-1-0.5c-0.3-0.2-0.7-0.3-1.1-0.3
		c-0.7-0.2-1.5-0.2-2.2,0c-0.3,0.1-0.7,0.2-1,0.3c-0.3,0.1-0.7,0.3-1,0.5c-0.3,0.2-0.6,0.4-0.8,0.7c-0.5,0.5-0.9,1.1-1.2,1.8
		c-0.3,0.7-0.4,1.4-0.4,2.1c0,0.7,0.2,1.5,0.4,2.1c0.3,0.7,0.7,1.3,1.2,1.8c0.3,0.2,0.6,0.4,0.8,0.7c0.3,0.2,0.7,0.4,1,0.5
		c0.3,0.2,0.7,0.3,1,0.3c0.4,0.1,0.7,0.1,1.1,0.1c0.3,0,0.7-0.1,1.1-0.1c0.4-0.1,0.7-0.2,1.1-0.3c0.3-0.1,0.7-0.3,1-0.5
		c0.3-0.2,0.6-0.4,0.9-0.7c0.5-0.6,0.9-1.2,1.2-1.8c0.3-0.7,0.4-1.4,0.4-2.1c0-0.7-0.2-1.5-0.4-2.1
		C377.3,470.3,376.9,469.8,376.4,469.2L376.4,469.2z"/>
	<path class="st0" d="M377.5,504.7c-0.1-0.3-0.3-0.7-0.5-1c-0.2-0.3-0.4-0.6-0.7-0.8c-2.1-2.1-5.9-2.1-8,0c-1,1.1-1.6,2.5-1.6,4
		c0,0.3,0.1,0.7,0.1,1.1c0.1,0.3,0.2,0.7,0.3,1c0.1,0.3,0.3,0.7,0.5,1c0.2,0.3,0.4,0.6,0.7,0.8c0.3,0.2,0.6,0.4,0.8,0.7
		c0.3,0.2,0.7,0.4,1,0.5c0.3,0.2,0.7,0.3,1,0.3c0.4,0.1,0.7,0.1,1.1,0.1c0.3,0,0.7-0.1,1.1-0.1c0.4-0.1,0.7-0.2,1.1-0.3
		c0.3-0.1,0.7-0.3,1-0.5c0.3-0.2,0.6-0.4,0.9-0.7c0.2-0.3,0.4-0.6,0.7-0.8c0.2-0.3,0.4-0.7,0.5-1c0.2-0.3,0.3-0.7,0.3-1
		c0.1-0.4,0.1-0.8,0.1-1.1s-0.1-0.7-0.1-1.1C377.8,505.3,377.7,505,377.5,504.7L377.5,504.7z"/>
	<path class="st0" d="M376.4,536.4c-0.3-0.2-0.6-0.4-0.9-0.7c-0.3-0.2-0.6-0.4-1-0.5c-0.3-0.2-0.7-0.3-1.1-0.3
		c-0.7-0.2-1.5-0.2-2.2,0c-0.3,0.1-0.7,0.2-1,0.3c-0.3,0.1-0.7,0.3-1,0.5c-0.3,0.2-0.6,0.4-0.8,0.7c-0.5,0.6-0.9,1.2-1.2,1.8
		c-0.3,0.7-0.4,1.4-0.4,2.1c0,0.7,0.2,1.5,0.4,2.1c0.3,0.7,0.7,1.3,1.2,1.8c0.3,0.2,0.6,0.5,0.8,0.7c0.3,0.2,0.7,0.4,1,0.5
		c0.3,0.2,0.7,0.3,1,0.3c0.4,0.1,0.7,0.1,1.1,0.1c0.3,0,0.7-0.1,1.1-0.1c0.4-0.1,0.7-0.2,1.1-0.3c0.3-0.1,0.7-0.3,1-0.5
		c0.3-0.2,0.6-0.4,0.9-0.7c0.5-0.6,0.9-1.1,1.2-1.8c0.3-0.7,0.4-1.4,0.4-2.1c0-0.7-0.2-1.5-0.4-2.1
		C377.3,537.6,376.9,537,376.4,536.4L376.4,536.4z"/>
	<path class="st0" d="M288.4,333.2c-3.1,0-5.6,2.5-5.6,5.6v5.6c0,3.1,2.5,5.6,5.6,5.6c3.1,0,5.6-2.5,5.6-5.6v-5.6
		C294,335.7,291.5,333.2,288.4,333.2z"/>
	<path class="st0" d="M411.6,350c3.1,0,5.6-2.5,5.6-5.6v-5.6c0-3.1-2.5-5.6-5.6-5.6c-3.1,0-5.6,2.5-5.6,5.6v5.6
		C406,347.5,408.5,350,411.6,350z"/>
	<path class="st0" d="M294,204v62c0,0.5,0.2,0.9,0.3,1.3c-12.1,14.5-20.6,31.9-24.7,50.8l-9.1,41.9c-0.4,1.7,0.1,3.4,1.1,4.7
		c1.1,1.3,2.7,2.1,4.4,2.1h82.5c0.5,0,0.9,0.1,1.4,0.1c0.5,0,1-0.1,1.5-0.1c0,0,0,0,0.1,0H434c1.7,0,3.3-0.8,4.4-2.1
		c1.1-1.3,1.5-3,1.1-4.7l-9.1-41.9c-4.1-18.9-12.7-36.5-24.7-50.8c0.1-0.4,0.3-0.8,0.3-1.3v-62c19-2.7,33.6-19.1,33.6-38.8
		c0-21.6-17.6-39.2-39.2-39.2c-11.2,0-21.9,4.9-29.2,13.1c-6-4.8-13.4-7.5-21.2-7.5s-15.2,2.7-21.2,7.5
		c-7.4-8.2-18.1-13.1-29.2-13.1c-21.6,0-39.2,17.6-39.2,39.2C260.4,184.9,275,201.3,294,204L294,204z M272.9,355.6l7.6-35.2
		c3.1-14.6,9.2-28.2,17.7-40.1l0.7,8.6c0,0.1,0,0.1,0,0.1l0,0.3c0.3,3.2,0.7,6.5,1.3,9.6c0.2,1,0.4,2,0.6,3c0.4,2.2,0.9,4.3,1.4,6.4
		c0.3,1.2,0.7,2.4,1.1,3.5c0.6,1.9,1.1,3.7,1.8,5.5c0.5,1.2,1,2.5,1.5,3.7c0.7,1.7,1.4,3.4,2.1,5c0.6,1.2,1.3,2.4,1.9,3.7
		c0.8,1.6,1.6,3.1,2.5,4.6c0.7,1.2,1.5,2.4,2.3,3.6c0.9,1.4,1.8,2.9,2.8,4.3c0.8,1.2,1.8,2.3,2.6,3.4c1,1.3,2.1,2.7,3.2,3.9
		c1,1.1,2,2.2,3,3.2c0.8,0.9,1.6,1.9,2.5,2.7L272.9,355.6z M305.2,260.4v-11.2h89.6v11.2H305.2z M353.9,271.6l-5,3.3
		c-7.8,5.1-16.7,7.9-26,7.9h-13.2l-0.9-11.2L353.9,271.6z M356.7,353c-1.3,1.1-2.7,2-4.4,2.4c-0.5,0.1-1,0.2-1.6,0.3
		c-0.5,0.1-1.1,0.1-1.6,0c-0.5-0.1-1-0.1-1.7-0.3c-1.5-0.4-3-1.2-4.2-2.3l-4.1-3.9c-2-1.9-3.9-3.8-5.7-5.9c-0.6-0.7-1.1-1.4-1.7-2.1
		c-1.2-1.4-2.4-2.8-3.5-4.3c-0.6-0.8-1.1-1.7-1.7-2.5c-1-1.4-2-2.9-2.9-4.4c-0.5-0.8-1-1.7-1.5-2.6c-0.9-1.6-1.7-3.1-2.5-4.8
		c-0.4-0.8-0.8-1.7-1.2-2.6c-0.8-1.7-1.5-3.4-2.2-5.2c-0.3-0.8-0.6-1.7-0.9-2.5c-0.6-1.8-1.2-3.7-1.8-5.6c-0.2-0.9-0.5-1.7-0.7-2.6
		c-0.5-1.8-0.9-3.7-1.2-5.6c-0.2-1-0.4-2-0.6-3c-0.1-0.6-0.1-1.1-0.2-1.6h12c11.4,0,22.6-3.4,32.2-9.7l19-12.7h17.1l-1.4,16.8
		c-2,23.6-12.3,45.2-29,60.8L356.7,353z M419.5,320.4l7.6,35.2h-56.8c0.9-0.9,1.7-1.9,2.6-2.8c1-1,2-2.1,2.9-3.1
		c1.1-1.3,2.2-2.7,3.2-4c0.9-1.1,1.8-2.2,2.6-3.3c1-1.4,1.9-2.9,2.9-4.4c0.7-1.2,1.5-2.3,2.2-3.5c0.9-1.5,1.7-3.1,2.5-4.7
		c0.6-1.2,1.3-2.4,1.9-3.6c0.8-1.7,1.5-3.4,2.2-5.1c0.5-1.2,1-2.4,1.5-3.6c0.7-1.8,1.2-3.7,1.8-5.6c0.4-1.2,0.8-2.3,1.1-3.4
		c0.6-2.1,1-4.3,1.4-6.5c0.2-1,0.5-1.9,0.6-2.9c0.6-3.2,1-6.4,1.3-9.6l0.8-9.1C410.2,292.1,416.3,305.8,419.5,320.4L419.5,320.4z
		 M299.6,137.2c9.7,0,18.8,5.1,23.8,13.3c0.9,1.5,2.6,2.5,4.4,2.7c1.9,0.1,3.6-0.6,4.7-2.1c4.3-5.3,10.7-8.3,17.4-8.3
		s13.1,3,17.4,8.4c1.1,1.4,2.9,2.2,4.7,2.1c1.8-0.1,3.4-1.1,4.4-2.7c5.1-8.2,14.2-13.4,23.8-13.4c15.4,0,28,12.6,28,28
		s-12.6,28-28,28c-3.1,0-5.6,2.5-5.6,5.6V238h-89.6v-39.2c0-3.1-2.5-5.6-5.6-5.6c-15.4,0-28-12.6-28-28
		C271.6,149.8,284.2,137.2,299.6,137.2L299.6,137.2z"/>
	<path class="st0" d="M496.5,451.1c-0.7-0.2-1.5-0.2-2.2,0c-0.4,0.1-0.7,0.2-1.1,0.3c-0.3,0.2-0.7,0.3-1,0.5
		c-0.3,0.2-0.6,0.4-0.8,0.7c-1.1,1.1-1.7,2.5-1.7,4c0,1.5,0.6,2.9,1.7,3.9c0.2,0.3,0.5,0.5,0.8,0.7c0.3,0.2,0.6,0.3,1,0.5
		c0.3,0.1,0.7,0.2,1.1,0.3c0.3,0.1,0.7,0.1,1.1,0.1c0.4,0,0.7-0.1,1.1-0.1c0.3-0.1,0.7-0.2,1.1-0.3c0.3-0.2,0.6-0.3,1-0.5
		c0.3-0.2,0.6-0.4,0.8-0.7c1.1-1,1.6-2.5,1.6-3.9c0-1.5-0.6-2.9-1.6-4c-0.3-0.3-0.6-0.5-0.8-0.7c-0.3-0.2-0.6-0.3-1-0.5
		C497.3,451.3,496.9,451.1,496.5,451.1z"/>
	<path class="st0" d="M498.6,481.1c-0.3-0.2-0.6-0.4-1-0.6c-0.3-0.1-0.7-0.2-1.1-0.3c-0.7-0.2-1.5-0.2-2.2,0
		c-0.4,0.1-0.7,0.2-1.1,0.3c-0.3,0.2-0.7,0.3-1,0.6c-0.3,0.2-0.6,0.4-0.8,0.7c-1.1,1.1-1.7,2.5-1.7,4c0,0.7,0.2,1.5,0.4,2.1
		c0.3,0.7,0.7,1.3,1.2,1.8c0.2,0.2,0.5,0.4,0.8,0.7c0.3,0.2,0.6,0.4,1,0.5c0.3,0.2,0.7,0.3,1.1,0.3c0.3,0.1,0.7,0.1,1.1,0.1
		c0.4,0,0.7-0.1,1.1-0.1c0.3-0.1,0.7-0.2,1.1-0.3c0.3-0.1,0.6-0.3,1-0.5c0.3-0.2,0.6-0.4,0.8-0.7c0.5-0.6,1-1.2,1.2-1.8
		c0.3-0.7,0.4-1.4,0.4-2.1c0-1.5-0.6-2.9-1.6-4C499.1,481.5,498.8,481.3,498.6,481.1L498.6,481.1z"/>
	<path class="st0" d="M498.6,510.3c-0.3-0.2-0.6-0.4-1-0.6c-0.3-0.1-0.7-0.2-1.1-0.3c-0.7-0.2-1.5-0.2-2.2,0
		c-0.4,0.1-0.7,0.2-1.1,0.3c-0.3,0.2-0.7,0.3-1,0.6c-0.3,0.2-0.6,0.4-0.8,0.7c-1.1,1.1-1.7,2.5-1.7,4c0,1.5,0.6,2.9,1.7,4
		c0.2,0.2,0.5,0.4,0.8,0.7c0.3,0.2,0.6,0.4,1,0.5c0.3,0.2,0.7,0.3,1.1,0.3c0.3,0.1,0.7,0.1,1.1,0.1c0.4,0,0.7-0.1,1.1-0.1
		c0.3-0.1,0.7-0.2,1.1-0.3c0.3-0.1,0.6-0.3,1-0.5c0.3-0.2,0.6-0.4,0.8-0.7c1.1-1.1,1.6-2.5,1.6-4c0-1.5-0.6-2.9-1.6-4
		C499.1,510.7,498.8,510.4,498.6,510.3z"/>
	<path class="st0" d="M499.4,540.1c-0.3-0.3-0.6-0.5-0.8-0.7c-0.3-0.2-0.6-0.4-1-0.6c-0.3-0.1-0.7-0.2-1.1-0.3
		c-0.7-0.2-1.5-0.2-2.2,0c-0.4,0.1-0.7,0.2-1.1,0.3c-0.3,0.2-0.7,0.3-1,0.6c-0.3,0.2-0.6,0.4-0.8,0.7c-0.6,0.5-1,1.1-1.2,1.8
		c-0.3,0.7-0.4,1.4-0.4,2.1c0,1.5,0.6,2.9,1.7,4c0.2,0.2,0.5,0.4,0.8,0.7c0.3,0.2,0.6,0.4,1,0.5c0.3,0.2,0.7,0.3,1.1,0.3
		c0.3,0.1,0.7,0.1,1.1,0.1c0.4,0,0.7-0.1,1.1-0.1c0.3-0.1,0.7-0.2,1.1-0.3c0.3-0.1,0.6-0.3,1-0.5c0.3-0.2,0.6-0.4,0.8-0.7
		c1.1-1.1,1.6-2.5,1.6-4c0-0.7-0.1-1.5-0.4-2.1C500.4,541.2,499.9,540.6,499.4,540.1L499.4,540.1z"/>
	<path class="st0" d="M221.2,456.6c0,1.5,0.6,2.9,1.6,3.9c1.1,1.1,2.5,1.7,4,1.7c1.5,0,2.9-0.6,4-1.7c1-1,1.6-2.5,1.6-3.9
		c0-1.5-0.6-2.9-1.6-4c-2.1-2.1-5.8-2.1-8,0C221.8,453.6,221.2,455.1,221.2,456.6L221.2,456.6z"/>
	<path class="st0" d="M230.8,481.8c-2.1-2.1-5.9-2.1-8,0c-0.5,0.5-0.9,1.1-1.2,1.8c-0.3,0.7-0.4,1.4-0.4,2.2c0,1.5,0.6,2.9,1.6,3.9
		c1.1,1.1,2.5,1.7,4,1.7c1.5,0,2.9-0.6,4-1.7c1-1,1.6-2.5,1.6-3.9c0-0.7-0.1-1.5-0.4-2.2C231.7,482.9,231.3,482.3,230.8,481.8
		L230.8,481.8z"/>
	<path class="st0" d="M222.8,510.9c-0.5,0.5-0.9,1.1-1.2,1.8c-0.3,0.7-0.4,1.5-0.4,2.2c0,1.5,0.6,2.9,1.6,3.9c1.1,1.1,2.5,1.7,4,1.7
		c1.5,0,2.9-0.6,4-1.7c1-1,1.6-2.5,1.6-3.9c0-1.5-0.6-2.9-1.6-4C228.7,508.9,224.9,508.9,222.8,510.9L222.8,510.9z"/>
	<path class="st0" d="M222.8,540.1c-1,1.1-1.6,2.5-1.6,4c0,0.7,0.2,1.5,0.4,2.1c0.3,0.7,0.7,1.3,1.2,1.8c1.1,1.1,2.5,1.7,4,1.7
		c1.5,0,2.9-0.6,4-1.7c0.5-0.5,0.9-1.1,1.2-1.8c0.3-0.7,0.4-1.4,0.4-2.1c0-1.5-0.6-2.9-1.6-4C228.6,538.1,224.9,538.1,222.8,540.1
		L222.8,540.1z"/>
	<path class="st0" d="M559.1,421.9l-5.2-4.6c-8.3-7.4-18.8-11.3-30.3-11.3h-68.1c-1.7,0-3.2,0.8-4.3,2.1c-1.8-2.3-3.9-4.6-6.1-6.6
		l-5.8-5.1c-3-2.6-5.9-4.7-8.9-6.3c-4.2-2.4-8.7-4.1-13.2-5.1c-3.7-0.9-7.5-1.3-11.3-1.3h-16.6V378c0-3.1-2.5-5.6-5.6-5.6
		c-3.1,0-5.6,2.5-5.6,5.6v5.6h-56V378c0-3.1-2.5-5.6-5.6-5.6c-3.1,0-5.6,2.5-5.6,5.6v5.6h-16.6c-3.9,0-7.7,0.4-11.2,1.3
		c-4.7,1-9.2,2.8-13.2,5.1c-3.1,1.7-6.1,3.7-9,6.4l-5.8,5.2c-2.3,2.1-4.4,4.3-6,6.4c-0.2,0.2-0.3,0.4-0.4,0.6
		c-1-1.5-2.7-2.5-4.6-2.5h-68.1c-11,0-21.5,4-29.7,11.3l-5.2,4.6c-9.5,8.5-14.9,20.6-14.9,33.3v113.2c0,3.1,2.5,5.6,5.6,5.6h140
		c3.1,0,5.6-2.5,5.6-5.6v-47.5l5.6,14.9l0,32.6c0,3.1,2.5,5.6,5.6,5.6h123.2c3.1,0,5.6-2.5,5.6-5.6v-32.6l5.6-14.9l0,47.5
		c0,3.1,2.5,5.6,5.6,5.6h140c3.1,0,5.6-2.5,5.6-5.6l0-113.1v-0.1C574,442.5,568.6,430.4,559.1,421.9L559.1,421.9z M238,455.7
		c0,0.3-0.2,0.5-0.2,0.8c0,0.3,0.1,0.5,0.2,0.8v27.5c0,0.3-0.2,0.5-0.2,0.8c0,0.3,0.1,0.5,0.2,0.8v27.5c0,0.3-0.2,0.5-0.2,0.8
		c0,0.3,0.1,0.5,0.2,0.8v27.5c0,0.3-0.2,0.5-0.2,0.8s0.1,0.5,0.2,0.8v17.9h-72.8v-78.4c0-3.1-2.5-5.6-5.6-5.6
		c-3.1,0-5.6,2.5-5.6,5.6v78.4h-16.8l0-107.6c0-9.5,4.1-18.6,11.2-24.9l5.2-4.6c6.1-5.5,14-8.5,22.2-8.5h47.6l14.7,29.3L238,455.7z
		 M239.9,425.2l-4-8h4.8l1.2,2.1C241,421.2,240.4,423.2,239.9,425.2L239.9,425.2z M383.6,562.8H294v-28c0-0.7-0.1-1.3-0.4-2
		l-16.3-43.5l5.4-37.8c0.4-3.1-1.7-5.9-4.8-6.3c-3.1-0.4-5.9,1.7-6.3,4.8l-5.6,39.2c0,0.2,0,0.3,0,0.5c0,0,0,0.1,0,0.1
		c0,0.1,0,0.1,0,0.2v72.8h-16.8v-17.4c0.1-0.5,0.3-0.9,0.3-1.4c0-0.5-0.2-0.9-0.3-1.4v-26.5c0.1-0.5,0.3-0.9,0.3-1.4
		c0-0.5-0.2-0.9-0.3-1.4v-26.5c0.1-0.5,0.3-0.9,0.3-1.4c0-0.5-0.2-0.9-0.3-1.4v-26.4c0.1-0.5,0.3-1,0.3-1.5c0-0.5-0.2-0.9-0.3-1.4
		v-15.6c0-1.2,0.1-2.4,0.2-3.6c0-0.1,0-0.3,0-0.4c0.4-3.9,1.4-7.7,2.9-11.3c1.2-2.8,2.7-5.4,4.5-7.8c0.2-0.3,0.4-0.6,0.8-1.1
		c1.4-1.8,3-3.5,4.7-5.1l5.8-5.2c2.3-2,4.5-3.6,7-4.9c3.2-1.8,6.6-3.1,10.3-3.9c2.8-0.7,5.7-1,8.7-1h74.5l14.9,34.7L383.6,562.8z
		 M450.8,454.7c-0.1,0.5-0.3,1-0.3,1.4s0.2,1,0.3,1.4V484c-0.1,0.5-0.3,1-0.3,1.4s0.2,1,0.3,1.4v26.4c-0.1,0.5-0.3,1-0.3,1.4
		s0.2,1,0.3,1.4v26.4c-0.1,0.5-0.3,1-0.3,1.4s0.2,1,0.3,1.4v17.4H434V490c0-0.3,0-0.5-0.1-0.8l-5.6-39.2c-0.4-3.1-3.3-5.2-6.3-4.8
		c-3.1,0.4-5.2,3.3-4.8,6.3l5.4,37.8l-16.3,43.5c-0.2,0.6-0.4,1.3-0.4,2v28h-11.2V428.4c0-0.8-0.2-1.5-0.5-2.2l-13.5-31.4h24.9
		c3,0,5.9,0.3,8.8,1.1c3.6,0.8,7,2.1,10.3,4c2.3,1.2,4.6,2.8,6.9,4.8l5.8,5.1c8.4,7.4,13.2,18.1,13.2,29.3L450.8,454.7z
		 M512.4,562.8H462v-17.9c0-0.3,0.2-0.5,0.2-0.8c0-0.3-0.1-0.6-0.2-0.8v-27.5c0-0.3,0.2-0.5,0.2-0.8c0-0.3-0.1-0.5-0.2-0.8v-27.5
		c0-0.3,0.2-0.5,0.2-0.8c0-0.4-0.1-0.7-0.1-1.1c0-0.1,0-0.1-0.1-0.2v-27.1c0-0.3,0.2-0.5,0.2-0.8c0-0.3-0.1-0.6-0.2-0.8v-17
		c0-6.7-1.3-13.4-3.9-19.6l0.9-1.9h38.7l14.7,30L512.4,562.8z M562.8,562.8H546v-78.4c0-3.1-2.5-5.6-5.6-5.6c-3.1,0-5.6,2.5-5.6,5.6
		v78.4h-11.2l0-116.9c0-0.9-0.2-1.7-0.6-2.5l-12.9-26.2h13.3c7.9,0,15.5,2.8,21.6,7.9l6,5.1c1.4,1.2,2.7,2.5,4,4.1
		c0.2,0.2,0.4,0.4,0.7,0.8c1.3,1.6,2.5,3.4,3.5,5.4c2.3,4.6,3.5,9.6,3.5,14.6L562.8,562.8z"/>
	<path class="st0" d="M160,274.2v67c0,6,1.8,11.9,5.1,16.9l17,25.4c3.4,5.1,7.8,9,12.8,11.4c4.8,2.2,9.8,3.3,14.7,3.3
		c6.6,0,13.2-2,18.9-5.9c3.3-2.3,6.2-5.3,8.8-9.1l16.7-25.1c3.4-5,5.1-10.9,5.1-16.9l0-36v-31c16.6-2.7,29.3-17.1,29.3-34.4
		c0-19.2-15.7-34.9-34.9-34.9c-9.7,0-19,4.2-25.6,11.2c-10.4-8.1-26.3-8.1-36.7,0c-6.5-7-15.8-11.2-25.6-11.2
		c-19.2,0-34.9,15.7-34.9,34.9C130.7,257.1,143.4,271.5,160,274.2L160,274.2z M247.9,341.2c0,3.8-1.1,7.5-3.3,10.7l-16.9,25.4
		c-1.6,2.3-3.5,4.3-5.6,5.8c-6.5,4.5-14.9,5.2-22.4,1.6c-3.1-1.5-5.9-4-8.4-7.8l-16.7-25.1c-2.1-3.2-3.2-6.9-3.2-10.7l0-30.4h76.7
		L247.9,341.2z M247.9,299.2h-76.7v-10.8h76.7L247.9,299.2z M165.6,216c8.2,0,15.9,4.3,20.2,11.3c0.9,1.5,2.6,2.5,4.4,2.7
		c1.9,0.1,3.6-0.7,4.7-2.1c3.6-4.5,9-7,14.6-7c5.7,0,11,2.6,14.7,7c1.1,1.4,2.8,2.2,4.7,2.1c1.8-0.1,3.4-1.1,4.4-2.7
		c4.3-7,12-11.3,20.2-11.3c13.1,0,23.7,10.6,23.7,23.7c0,13.1-10.6,23.7-23.7,23.7c-3.1,0-5.6,2.5-5.6,5.6l0,8.2h-76.7V269
		c0-3.1-2.5-5.6-5.6-5.6c-13.1,0-23.7-10.6-23.7-23.7C141.9,226.7,152.6,216,165.6,216L165.6,216z"/>
	<path class="st0" d="M411.6,239.7c0,17.3,12.7,31.8,29.3,34.4v67c0,6,1.8,11.9,5.1,16.9l17,25.5c2.3,3.4,5.2,6.4,8.5,8.8
		c5.7,3.9,12.2,5.9,18.8,5.9c5,0,10-1.1,14.8-3.3c4.9-2.3,9.4-6.3,13-11.7l16.7-25.1c3.4-5,5.1-10.9,5.1-16.9v-67
		c16.6-2.7,29.3-17.1,29.3-34.4c0-19.2-15.7-34.9-34.9-34.9c-9.7,0-19,4.2-25.6,11.2c-10.4-8.1-26.3-8.1-36.7,0
		c-6.5-7-15.8-11.2-25.6-11.2C427.2,204.8,411.6,220.5,411.6,239.7L411.6,239.7z M528.8,341.2c0,3.8-1.1,7.5-3.2,10.7l-17,25.4
		c-2.3,3.4-5.1,6-8.2,7.4c-7.5,3.5-15.9,2.9-22.4-1.6c-2.2-1.6-4.1-3.5-5.9-6.2l-16.7-25.1c-2.1-3.2-3.3-6.9-3.3-10.7l0-30.4h76.7
		L528.8,341.2z M528.8,299.2h-76.7v-10.8h76.7L528.8,299.2z M446.5,216c8.2,0,15.9,4.3,20.2,11.3c1,1.5,2.6,2.5,4.4,2.7
		c1.9,0.2,3.6-0.6,4.7-2.1c3.6-4.5,9-7,14.7-7c5.7,0,11,2.6,14.6,7c1.1,1.4,2.8,2.2,4.7,2.1c1.8-0.1,3.4-1.1,4.4-2.7
		c4.3-7,12-11.3,20.2-11.3c13.1,0,23.7,10.6,23.7,23.7c0,13.1-10.6,23.7-23.7,23.7c-3.1,0-5.6,2.5-5.6,5.6l0,8.2h-76.7V269
		c0-3.1-2.5-5.6-5.6-5.6c-13.1,0-23.7-10.6-23.7-23.7C422.8,226.7,433.4,216,446.5,216L446.5,216z"/>
</g>
</svg>
