<?xml version="1.0" encoding="utf-8"?>
<!-- Generator: Adobe Illustrator 26.0.2, SVG Export Plug-In . SVG Version: 6.00 Build 0)  -->
<svg version="1.1" id="Capa_1" xmlns="http://www.w3.org/2000/svg" xmlns:xlink="http://www.w3.org/1999/xlink" x="0px" y="0px"
	 viewBox="0 0 700 700" style="enable-background:new 0 0 700 700;" xml:space="preserve">
<style type="text/css">
	.st0{fill:#FFFFFF;}
</style>
<symbol  id="b" viewBox="-8.2 -8 16.4 16.1">
	<path d="M8.2-0.1v1.4H-3.2c0.1,1.1,0.5,2,1.2,2.6c0.7,0.6,1.7,0.9,3,0.9c1,0,2.1-0.1,3.2-0.5C5.2,4,6.3,3.6,7.5,2.9v3.8
		C6.3,7.1,5.2,7.5,4,7.7C2.9,7.9,1.7,8,0.5,8c-2.8,0-4.9-0.7-6.5-2.1C-7.5,4.5-8.2,2.6-8.2,0c0-2.5,0.8-4.5,2.3-5.9
		C-4.4-7.3-2.4-8,0.3-8C2.7-8,4.6-7.3,6-5.9C7.5-4.4,8.2-2.5,8.2-0.1L8.2-0.1z M3.2-1.7c0-0.9-0.3-1.7-0.8-2.2
		C1.8-4.5,1.1-4.8,0.3-4.8c-0.9,0-1.7,0.3-2.3,0.8s-1,1.3-1.1,2.3H3.2z"/>
</symbol>
<symbol  id="c" viewBox="-6.2 -9.8 12.4 19.7">
	<path d="M1.1-9.8v4.3h5V-2h-5v6.5c0,0.7,0.1,1.2,0.4,1.4s0.8,0.4,1.7,0.4h2.5v3.5H1.6c-1.9,0-3.3-0.4-4.1-1.2
		c-0.8-0.8-1.2-2.2-1.2-4.1V-2h-2.4v-3.5h2.4v-4.3H1.1z"/>
</symbol>
<symbol  id="d" viewBox="-5.7 -7.8 11.4 15.7">
	<path d="M5.7-3.3C5.2-3.5,4.8-3.6,4.4-3.7C4-3.8,3.6-3.9,3.1-3.9c-1.3,0-2.2,0.4-2.9,1.2c-0.7,0.8-1,2-1,3.5v7.1h-4.9V-7.5h4.9V-5
		c0.6-1,1.3-1.7,2.2-2.2c0.8-0.5,1.8-0.7,2.9-0.7c0.2,0,0.3,0,0.5,0c0.2,0,0.5,0,0.8,0.1L5.7-3.3z"/>
</symbol>
<symbol  id="e" viewBox="-8.4 -8 16.8 16.1">
	<path d="M0-4.5c-1.1,0-1.9,0.4-2.5,1.2C-3-2.6-3.3-1.5-3.3,0S-3,2.6-2.5,3.4C-1.9,4.2-1.1,4.5,0,4.5c1.1,0,1.9-0.4,2.4-1.2
		C3,2.6,3.3,1.5,3.3,0S3-2.6,2.5-3.4C1.9-4.1,1.1-4.5,0-4.5z M0-8c2.6,0,4.7,0.7,6.2,2.1C7.7-4.5,8.4-2.5,8.4,0
		c0,2.5-0.7,4.5-2.2,5.9C4.7,7.3,2.7,8,0,8c-2.6,0-4.7-0.7-6.2-2.1C-7.7,4.5-8.4,2.5-8.4,0c0-2.5,0.7-4.5,2.2-5.9
		C-4.7-7.3-2.6-8,0-8z"/>
</symbol>
<symbol  id="g" viewBox="-7.7 -10.6 15.4 21.3">
	<path d="M7.7,1.3v9.3H2.8V3.5c0-1.3,0-2.3-0.1-2.8S2.5-0.1,2.4-0.3C2.2-0.7,1.9-0.9,1.6-1.1C1.3-1.3,0.9-1.3,0.5-1.3
		c-1,0-1.8,0.4-2.4,1.2c-0.6,0.8-0.9,1.9-0.9,3.3v7.5h-4.9v-21.3h4.9v8.2c0.7-0.9,1.5-1.5,2.3-2C0.4-4.8,1.3-5,2.3-5
		c1.8,0,3.1,0.5,4,1.6C7.2-2.3,7.7-0.8,7.7,1.3L7.7,1.3z"/>
</symbol>
<symbol  id="h" viewBox="-7.7 -7.8 15.4 15.7">
	<path d="M7.7-1.5v9.3H2.8V0.7c0-1.3,0-2.2-0.1-2.7S2.5-2.9,2.4-3.1C2.2-3.5,1.9-3.7,1.6-3.9C1.3-4.1,0.9-4.1,0.5-4.1
		c-1,0-1.8,0.4-2.4,1.2c-0.6,0.8-0.9,1.9-0.9,3.3v7.5h-4.9V-7.5h4.9v2.2c0.7-0.9,1.5-1.5,2.3-2c0.8-0.4,1.8-0.6,2.8-0.6
		c1.8,0,3.1,0.5,4,1.6C7.2-5.1,7.7-3.5,7.7-1.5L7.7-1.5z"/>
</symbol>
<g>
	<path class="st0" d="M515,273c6.2,3,13.1,4.8,20.4,4.8c1.6,0,3.2-0.1,4.8-0.2c3.1-0.3,6.2-0.9,9.1-1.9c2.9-0.9,5.7-2.1,8.4-3.5
		c2.4-1.3,4.7-2.9,6.9-4.6c4.8-3.9,8.9-8.7,11.9-14.2c3.6-6.6,5.6-14.2,5.6-22.2c0-8-2-15.6-5.6-22.2c-4.3-7.9-10.8-14.5-18.8-18.8
		c-2.6-1.4-5.4-2.6-8.4-3.5c-2.9-0.9-6-1.5-9.1-1.9c-1.6-0.2-3.2-0.2-4.8-0.2c-6.7,0-13,1.4-18.8,4c2.2,5.6,3.7,11.5,4.4,17.6
		c4.2-2.4,9.1-3.9,14.3-3.9c16,0,29,13,29,29s-13,29-29,29c-8.9,0-16.8-4.1-22.1-10.5c-2.8,5.4-6.3,10.4-10.3,15
		c0.5,0.5,1.1,1,1.7,1.5C508.3,268.1,511.7,270.4,515,273L515,273z"/>
	<path class="st0" d="M555.2,290.1H531c3.6,5.4,6.6,11.4,8.7,17.7h15.5c16.1,0,29.1,13.1,29.1,29.1v70c0,2.7-2.2,4.9-4.9,4.9h-20.1
		v85.3c0,2.7-2.2,4.9-4.9,4.9h-38.1c-0.1,0-0.1,0-0.1,0v6.4c0,3.8-0.5,7.5-1.3,11.1c0.5,0,1,0.2,1.5,0.2h38.1c1.6,0,3.1-0.2,4.5-0.5
		c2.9-0.6,5.7-1.8,8.1-3.4c6-4.1,10-10.9,10-18.7l0-67.7h2.5c4.7,0,9-1.4,12.6-3.9c6-4.1,10-10.9,10-18.7v-70
		C602,311.2,581,290.1,555.2,290.1L555.2,290.1z"/>
	<path class="st0" d="M447,183.4c17.6,0,31.9,14.3,31.9,31.9c0,17.6-14.3,31.9-31.9,31.9c-9.7,0-18.3-4.4-24.1-11.3
		c-2.6,6.3-6.1,12.2-10.2,17.5c1.6,1.4,3.2,2.7,4.9,3.9c1.6,1.1,3.2,2.2,4.9,3.1c1.5,0.8,3,1.5,4.5,2.2c6.1,2.6,12.9,4,20,4
		s13.8-1.4,20-4c1.5-0.6,3-1.4,4.5-2.2c1.7-0.9,3.3-2,4.9-3.1c6.5-4.6,12-10.6,15.8-17.6c4-7.3,6.2-15.6,6.2-24.5
		c0-28.4-23-51.4-51.4-51.4c-9.6,0-18.6,2.7-26.3,7.3c3,6,5.2,12.4,6.6,19.2C432.7,186,439.5,183.4,447,183.4L447,183.4z"/>
	<path class="st0" d="M520.4,409.1v-77.2c0-7.1-1.4-13.9-4.1-20c-2.6-6.2-6.4-11.7-11.1-16.4c-1.2-1.2-2.4-2.3-3.7-3.3
		c-8.9-7.4-20.3-11.8-32.8-11.8h-35.4c5,5.8,9.2,12.4,12.4,19.5h23c17.7,0,32.1,14.4,32.1,32.1v77.2c0,2.9-2.5,5.4-5.4,5.4h-22.2
		v94.1c0,2.9-2.5,5.4-5.4,5.4h-42c-1.2,0-2.2-0.5-3.1-1.1v10c0,3.5-0.4,6.9-1,10.1c1.3,0.2,2.7,0.4,4.1,0.4h42c3.4,0,6.7-0.7,9.6-2
		c8.9-3.8,15.2-12.6,15.2-22.9l0-74.6h2.7C509.2,433.9,520.4,422.7,520.4,409.1L520.4,409.1z"/>
	<path class="st0" d="M185,273c3.3-2.6,6.7-4.9,10.3-6.9c0.6-0.5,1.1-1,1.7-1.5c-4-4.5-7.5-9.6-10.3-15
		c-5.3,6.4-13.2,10.5-22.1,10.5c-16,0-29-13-29-29s13-29,29-29c5.2,0,10.1,1.5,14.3,3.9c0.8-6.1,2.3-12,4.4-17.6
		c-5.7-2.5-12.1-4-18.8-4c-25.7,0-46.6,20.9-46.6,46.6c0,14.7,6.8,27.8,17.5,36.4c8,6.4,18.1,10.2,29.1,10.2
		C172,277.7,178.9,276,185,273L185,273z"/>
	<path class="st0" d="M120.6,429.5h2.5v67.7c0,9.3,5.7,17.3,13.8,20.8c2.7,1.1,5.7,1.8,8.8,1.8h38.1c0.5,0,1-0.1,1.5-0.2
		c-0.8-3.6-1.3-7.3-1.3-11.1v-6.4c-0.1,0-0.1,0-0.1,0h-38.1c-2.7,0-4.9-2.2-4.9-4.9l0-67.7v-17.7l-17.7,0h-2.5
		c-2.7,0-4.9-2.2-4.9-4.9v-70c0-16.1,13.1-29.1,29.1-29.1h15.5c2.1-6.3,5-12.2,8.7-17.7h-24.2c-11.3,0-21.6,4-29.7,10.7
		c-10.4,8.6-17.1,21.6-17.1,36.1v70C98,419.4,108.1,429.5,120.6,429.5L120.6,429.5z"/>
	<path class="st0" d="M223.6,257.4c1.6,1.1,3.2,2.2,4.9,3.1c1.5,0.8,3,1.5,4.5,2.2c6.1,2.6,12.9,4,20,4c7.1,0,13.8-1.4,20-4
		c1.5-0.6,3-1.4,4.5-2.2c1.7-0.9,3.3-2,4.9-3.1c1.7-1.2,3.3-2.5,4.9-3.9c-4.1-5.4-7.5-11.2-10.2-17.5c-5.9,6.8-14.4,11.3-24.1,11.3
		c-17.6,0-31.9-14.3-31.9-31.9c0-17.6,14.3-31.9,31.9-31.9c7.5,0,14.2,2.7,19.7,7c1.3-6.7,3.6-13.1,6.6-19.2
		c-7.7-4.6-16.6-7.3-26.3-7.3c-28.4,0-51.4,23-51.4,51.4c0,8.9,2.2,17.2,6.2,24.5C211.7,246.8,217.1,252.8,223.6,257.4L223.6,257.4z
		"/>
	<path class="st0" d="M277.1,512.8c-0.9,0.6-1.9,1.1-3.1,1.1h-42c-2.9,0-5.4-2.5-5.4-5.4v-94.1h-22.2c-2.9,0-5.4-2.5-5.4-5.4v-77.2
		c0-17.7,14.4-32.1,32.1-32.1h23c3.2-7.1,7.4-13.6,12.4-19.5h-35.4c-12.4,0-23.8,4.4-32.8,11.8c-1.3,1.1-2.5,2.2-3.7,3.3
		c-4.7,4.7-8.5,10.2-11.1,16.4c-0.7,1.5-1.2,3.1-1.7,4.7c-1.5,4.8-2.3,10-2.3,15.3V409c0,6.8,2.8,13,7.3,17.6c1.1,1.1,2.4,2.1,3.7,3
		c4,2.7,8.7,4.3,13.9,4.3h2.7v74.6c0,13.7,11.2,24.9,24.9,24.9h42c1.4,0,2.8-0.2,4.1-0.4c-0.7-3.3-1-6.7-1-10.1L277.1,512.8
		L277.1,512.8z"/>
	<path class="st0" d="M320.9,253.1c8.5,5.2,18.4,8.3,29.1,8.3c7.7,0,15-1.6,21.6-4.4c2.6-1.1,5.1-2.4,7.4-3.9
		c3.7-2.3,7.1-4.9,10.2-8c10-10,16.3-23.9,16.3-39.3c0-11.5-3.5-22.2-9.5-31c-10-14.8-26.9-24.5-46-24.5c-11.5,0-22.2,3.5-31,9.5
		c-3,2-5.7,4.3-8.2,6.8c-2.5,2.5-4.8,5.3-6.8,8.2c-6,8.9-9.5,19.5-9.5,31C294.5,225.8,305.1,243.3,320.9,253.1L320.9,253.1z
		 M350,171.3c19,0,34.5,15.5,34.5,34.5S369,240.3,350,240.3s-34.5-15.5-34.5-34.5S331,171.3,350,171.3z"/>
	<path class="st0" d="M429.4,415.3v-83.4c0-30.7-25.1-55.7-55.7-55.7h-47.3c-21.1,0-39.5,11.9-49,29.2c-4.3,7.9-6.8,16.9-6.8,26.5
		v83.4c0,14.8,12.1,26.9,26.9,26.9h2.9v80.6c0,14.8,12.1,26.9,26.9,26.9h45.4c3.7,0,7.2-0.8,10.4-2.1c9.6-4.1,16.4-13.7,16.4-24.7
		v-80.6h2.9c7.4,0,14.1-3,19-7.9C426.4,429.4,429.4,422.7,429.4,415.3L429.4,415.3z M408.3,415.3c0,3.2-2.7,5.8-5.8,5.8h-24v101.7
		c0,3.2-2.7,5.8-5.8,5.8h-45.4c-3.2,0-5.8-2.7-5.8-5.8V421.1h-24c-3.2,0-5.8-2.7-5.8-5.8v-83.4c0-19.1,15.6-34.7,34.7-34.7h47.3
		c19.1,0,34.7,15.6,34.7,34.7L408.3,415.3L408.3,415.3z"/>
</g>
<g>
	<defs>
		<rect id="SVGID_1_" x="82.2" y="672" width="700" height="700"/>
	</defs>
	<clipPath id="SVGID_00000053507565599037749480000014637298737599519672_">
		<use xlink:href="#SVGID_1_"  style="overflow:visible;"/>
	</clipPath>
	<g style="clip-path:url(#SVGID_00000053507565599037749480000014637298737599519672_);">
		
			<use xlink:href="#d"  width="11.4" height="15.7" x="-5.7" y="-7.8" transform="matrix(1 0 0 1 90.2301 664.1561)" style="overflow:visible;"/>
	</g>
</g>
<g>
	<defs>
		<rect id="SVGID_00000028313772535110374230000004074780670009846437_" x="154.2" y="672" width="700" height="700"/>
	</defs>
	<clipPath id="SVGID_00000159429473584492047560000004839614114298942369_">
		<use xlink:href="#SVGID_00000028313772535110374230000004074780670009846437_"  style="overflow:visible;"/>
	</clipPath>
	<g style="clip-path:url(#SVGID_00000159429473584492047560000004839614114298942369_);">
		
			<use xlink:href="#c"  width="12.4" height="19.7" x="-6.2" y="-9.8" transform="matrix(1 0 0 1 160.7148 662.1721)" style="overflow:visible;"/>
	</g>
</g>
<g>
	<defs>
		<rect id="SVGID_00000087387705739108157630000014449095894957571477_" x="167.5" y="672" width="700" height="700"/>
	</defs>
	<clipPath id="SVGID_00000126284044283137869480000014470934014647605929_">
		<use xlink:href="#SVGID_00000087387705739108157630000014449095894957571477_"  style="overflow:visible;"/>
	</clipPath>
	<g style="clip-path:url(#SVGID_00000126284044283137869480000014470934014647605929_);">
		
			<use xlink:href="#g"  width="15.4" height="21.3" x="-7.7" y="-10.6" transform="matrix(1 0 0 1 177.5899 661.3594)" style="overflow:visible;"/>
	</g>
</g>
<g>
	<defs>
		<rect id="SVGID_00000092437649741636170500000003599118273524626594_" x="187.5" y="672" width="700" height="700"/>
	</defs>
	<clipPath id="SVGID_00000159431613277293615920000000745884729437420990_">
		<use xlink:href="#SVGID_00000092437649741636170500000003599118273524626594_"  style="overflow:visible;"/>
	</clipPath>
	<g style="clip-path:url(#SVGID_00000159431613277293615920000000745884729437420990_);">
		
			<use xlink:href="#b"  width="16.4" height="16.1" x="-8.2" y="-8" transform="matrix(1 0 0 1 196.8909 664.3516)" style="overflow:visible;"/>
	</g>
</g>
<g>
	<defs>
		<rect id="SVGID_00000070104740409875766980000005212717861395326631_" x="239.6" y="672" width="700" height="700"/>
	</defs>
	<clipPath id="SVGID_00000156556446838394083230000002696268178450074041_">
		<use xlink:href="#SVGID_00000070104740409875766980000005212717861395326631_"  style="overflow:visible;"/>
	</clipPath>
	<g style="clip-path:url(#SVGID_00000156556446838394083230000002696268178450074041_);">
		
			<use xlink:href="#e"  width="16.8" height="16.1" x="-8.4" y="-8" transform="matrix(1 0 0 1 249.2578 664.351)" style="overflow:visible;"/>
	</g>
</g>
<g>
	<defs>
		<rect id="SVGID_00000046306006577501889940000002419742671024051595_" x="278.8" y="672" width="700" height="700"/>
	</defs>
	<clipPath id="SVGID_00000133503505716912591060000004631241810455244440_">
		<use xlink:href="#SVGID_00000046306006577501889940000002419742671024051595_"  style="overflow:visible;"/>
	</clipPath>
	<g style="clip-path:url(#SVGID_00000133503505716912591060000004631241810455244440_);">
		
			<use xlink:href="#h"  width="15.4" height="15.7" x="-7.7" y="-7.8" transform="matrix(1 0 0 1 288.8672 664.1564)" style="overflow:visible;"/>
	</g>
</g>
<g>
	<defs>
		<rect id="SVGID_00000032620525835869311890000004684802449933680524_" x="329" y="672" width="700" height="700"/>
	</defs>
	<clipPath id="SVGID_00000156576565874923067220000008818607210320509069_">
		<use xlink:href="#SVGID_00000032620525835869311890000004684802449933680524_"  style="overflow:visible;"/>
	</clipPath>
	<g style="clip-path:url(#SVGID_00000156576565874923067220000008818607210320509069_);">
		
			<use xlink:href="#d"  width="11.4" height="15.7" x="-5.7" y="-7.8" transform="matrix(1 0 0 1 337.0622 664.1561)" style="overflow:visible;"/>
	</g>
</g>
<g>
	<defs>
		<rect id="SVGID_00000033329545392317063400000006528650768935431063_" x="342.8" y="672" width="700" height="700"/>
	</defs>
	<clipPath id="SVGID_00000023267179005471747830000001587603182783281841_">
		<use xlink:href="#SVGID_00000033329545392317063400000006528650768935431063_"  style="overflow:visible;"/>
	</clipPath>
	<g style="clip-path:url(#SVGID_00000023267179005471747830000001587603182783281841_);">
		
			<use xlink:href="#e"  width="16.8" height="16.1" x="-8.4" y="-8" transform="matrix(1 0 0 1 352.4375 664.351)" style="overflow:visible;"/>
	</g>
</g>
<g>
	<defs>
		<rect id="SVGID_00000132049316596711047610000015577888024916636574_" x="371.7" y="672" width="700" height="700"/>
	</defs>
	<clipPath id="SVGID_00000106852044723071035740000013455125680896230035_">
		<use xlink:href="#SVGID_00000132049316596711047610000015577888024916636574_"  style="overflow:visible;"/>
	</clipPath>
	<g style="clip-path:url(#SVGID_00000106852044723071035740000013455125680896230035_);">
		
			<use xlink:href="#b"  width="16.4" height="16.1" x="-8.2" y="-8" transform="matrix(1 0 0 1 381.0785 664.3516)" style="overflow:visible;"/>
	</g>
</g>
<g>
	<defs>
		<rect id="SVGID_00000074441370824769364260000015708420255757018292_" x="407.2" y="672" width="700" height="700"/>
	</defs>
	<clipPath id="SVGID_00000150816829392941479740000010438852028526263990_">
		<use xlink:href="#SVGID_00000074441370824769364260000015708420255757018292_"  style="overflow:visible;"/>
	</clipPath>
	<g style="clip-path:url(#SVGID_00000150816829392941479740000010438852028526263990_);">
		
			<use xlink:href="#c"  width="12.4" height="19.7" x="-6.2" y="-9.8" transform="matrix(1 0 0 1 413.8047 662.1721)" style="overflow:visible;"/>
	</g>
</g>
</svg>
