<?xml version="1.0" encoding="utf-8"?>
<!-- Generator: Adobe Illustrator 26.0.2, SVG Export Plug-In . SVG Version: 6.00 Build 0)  -->
<svg version="1.1" id="Capa_1" xmlns="http://www.w3.org/2000/svg" xmlns:xlink="http://www.w3.org/1999/xlink" x="0px" y="0px"
	 viewBox="0 0 700 700" style="enable-background:new 0 0 700 700;" xml:space="preserve">
<style type="text/css">
	.st0{fill:#FFFFFF;}
</style>
<g>
	<path class="st0" d="M300.7,607.5v-46.3c0-5.2-4.2-9.3-9.3-9.3l-14.1,0v-9.7c9.8-8.4,35.2-32.9,35.2-63v-37.5h283.6
		c18.1,0,32.8-14.7,32.8-32.8l0-293c0-18.1-14.7-32.8-32.8-32.8H197.7c-18.1,0-32.8,14.7-32.8,32.8v171.3l-55.6,44.5
		c-16.5,15.1-26.5,26.2-26.5,53.8l0,166.4l-2.4,0c-5.2,0-9.3,4.2-9.3,9.3v46.3c0,5.2,4.2,9.3,9.3,9.3h210.9
		C296.5,616.9,300.7,612.7,300.7,607.5L300.7,607.5z M197.6,101.8h398.4c7.8,0,14.1,6.3,14.1,14.1v293c0,7.8-6.3,14.1-14.1,14.1
		H243.6l25.9-25.9c19.4-24.2,12-59.7-6.6-76.4c-11.9-10.6-26.2-10.7-36.7-0.4l-42.7,42.7l0-247C183.6,108.1,189.9,101.8,197.6,101.8
		L197.6,101.8z M101.5,385.5c0-19.6,5-25.9,19.9-39.6l43.4-34.7v62.6c0,2.2,0.9,4.1,2.1,5.7L132.4,414l13.2,13.2l93.8-93.8
		c1.5-1.5,4.6-4.6,11,1.1c10.7,9.6,17.8,34.2,5.2,50.1L226.2,414c-1.8,1.8-2.7,4.1-2.7,6.6v35.2c0,32.6-23.5,37.5-37.5,37.5
		c-5.2,0-9.3,4.2-9.3,9.3s4.2,9.3,9.3,9.3c27.2,0,56.2-14.8,56.2-56.2v-14.1h51.6v37.5c0,27.1-31.1,50.9-31.4,51.1
		c-2.4,1.8-3.7,4.5-3.7,7.4v14.1l-157.1,0L101.5,385.5z M282.1,598.2H89.8v-27.6h192.3V598.2z"/>
	<path class="st0" d="M291.7,279.2h2.9V380c0,5.2,4.2,9.3,9.3,9.3h220.4c5.2,0,9.3-4.2,9.3-9.3V279.2h2.9c5.2,0,9.3-4.2,9.3-9.3
		v-61.2c0-5.2-4.2-9.3-9.3-9.3h-80c6.1-4.3,10.3-8.6,13-12.3c10.6-14.4,6.9-27.1,0.6-33.5c-8.1-8.2-21.4-8.4-33.4,0.2
		c-0.1,0-0.2,0.1-0.2,0.2c0.1-3.2-0.1-6.1-0.4-8.4c-2.5-16.2-13.1-22.1-21.7-22.1c-8.3,0-18.9,5.7-21.5,21.8
		c-0.4,2.5-0.6,5.5-0.5,8.9c-0.1,0-0.2-0.1-0.2-0.2c-12-8.6-25.4-8.3-33.4-0.1c-6.3,6.5-9.8,19.1,0.8,33.5c2.7,3.6,6.8,7.8,12.7,12
		l-80.6,0c-5.2,0-9.3,4.2-9.3,9.3v61.2C282.4,275,286.6,279.2,291.7,279.2L291.7,279.2z M313.3,279.2h67v91.5h-67.1L313.3,279.2
		L313.3,279.2z M429.3,370.7H399v-91.5h30.3V370.7z M515,370.7H448v-91.5h67L515,370.7L515,370.7z M446.3,166.9
		c3.9-2.8,6.8-3.4,8.5-3.4c1.5,0,2.8,0.5,3.7,1.4c2.4,2.5,1.6,7.3-2.1,12.4c-3.3,4.5-11.2,12.2-29.2,18.9
		C434.1,178,441.8,170.2,446.3,166.9L446.3,166.9z M409,147.7c0.8-5,2.9-8.1,5.4-8.1c2.6,0,4.8,3.2,5.6,8.3
		c0.7,4.6,0.6,13.5-5.6,27.7C408.3,161.3,408.3,152.3,409,147.7z M370.5,165.1c0.9-1,2.2-1.5,3.7-1.5c1.7,0,4.5,0.6,8.4,3.4
		c4.5,3.2,12.3,11,19.3,29.1c-18.1-6.6-26-14.2-29.3-18.7C368.9,172.4,368.1,167.6,370.5,165.1L370.5,165.1z M301,217.9h226.2v42.5
		H301L301,217.9z"/>
</g>
</svg>
