<svg xmlns="http://www.w3.org/2000/svg" viewBox="0 0 216.08 228.87"><defs><style>.cls-1{fill:#9a8e6c;stroke:#9a8e6c;stroke-width:3px;}.cls-1,.cls-2,.cls-3,.cls-4,.cls-5,.cls-6{stroke-linecap:round;stroke-linejoin:round;}.cls-2,.cls-3,.cls-4,.cls-5,.cls-6{fill:#fff;stroke:#fff;}.cls-2{stroke-width:0.28px;}.cls-3{stroke-width:0.24px;}.cls-4{stroke-width:0.2px;}.cls-5{stroke-width:0.15px;}.cls-6{stroke-width:0.22px;}</style></defs><g id="Capa_2" data-name="Capa 2"><g id="Capa_1-2" data-name="Capa 1"><g id="g3152"><path id="path3230-2-6" class="cls-1" d="M214.58,120.83A106.54,106.54,0,1,1,108,14.29,106.54,106.54,0,0,1,214.58,120.83Z"/><g id="g3141"><path id="path4248" class="cls-2" d="M123.48,108.67,125,106.6,127.8,104l3.79-2.76,5.87-4.49,4.92-3.19,4.4-2.67,4.57-2.59,6.21-2.76L164,83.39l3.11-.43,2.24.17,1.12.78c-10,11-20.23,22-31.14,32.87.39.78-.17,2.4,1.9,1.72,10.53-10.72,20.86-21.59,30.71-32.78l.26,2.93c-.1,1.64-.28,3.43-.61,5.52l-1.38,7.08-2.59,6.56-6.55,14-3.8,6.73-2.59,4.14L152,135.84l-3.79,3.37-4.49,3.28-6.47,2.33a13.94,13.94,0,0,1-6.82.77L125.21,144l-4-2.24a60,60,0,0,1-4.49-5.52,16.47,16.47,0,0,1-1.55-6.91l.35-6.21a42.06,42.06,0,0,1,4.31-9.31Z"/><path id="path4248-0" class="cls-3" d="M84.89,120.91l-1.33,1.75-2.35,2.18L78,127.15l-5,3.76-4.16,2.66-3.72,2.23L61.28,138l-5.23,2.27L50.61,142l-2.6.32-1.87-.19-.93-.68c8.54-9.34,17.26-18.62,26.56-27.75-.32-.67.17-2.06-1.56-1.51-9,9-17.78,18.22-26.19,27.67l-.17-2.52c.11-1.41.29-3,.6-4.74l1.27-6.06L48,120.9,53.69,109,57,103.27l2.23-3.52,2.36-2.7,3.22-2.83,3.8-2.74L74,89.59A11.34,11.34,0,0,1,79.74,89L84,90.46l3.27,2A49.78,49.78,0,0,1,91,97.28a14.69,14.69,0,0,1,1.18,6l-.39,5.34A37.31,37.31,0,0,1,88,116.52Z"/><path id="path4248-5" class="cls-4" d="M101,73l-.78-1.77-.74-2.77L98.89,65l-1-5.56-.47-4.47L97.14,51l-.21-4,.16-5.22.6-5.19.65-2.29.76-1.49.78-.51c3.68,10.62,7.26,21.39,10.53,32.56.58,0,1.38.93,1.58-.72-3.33-10.89-6.8-21.68-10.6-32.24l1.82.81a37.17,37.17,0,0,1,3.12,2.27l3.81,3.34,3.16,4,6.42,9.23,2.9,4.89,1.72,3.18,1.1,3,.9,3.75.65,4.2-.5,5.25a11.77,11.77,0,0,1-1.52,5l-2.43,3-2.49,2a34.65,34.65,0,0,1-4.6,1.23,9.72,9.72,0,0,1-4.57-1.25l-3.6-2.33a32.86,32.86,0,0,1-4.3-6.12Z"/><path id="path4248-1" class="cls-5" d="M118.56,26.37l-1.16-.63-1.57-1.26L114,22.64l-2.87-2.82L109,17.38l-1.83-2.21-1.82-2.32L103.26,9.6l-1.88-3.48-.62-1.76L100.53,3l.2-.76c6.45,4.34,12.91,8.83,19.38,13.74.31-.34,1.13-.23.54-1.34-6.38-4.71-12.79-9.26-19.29-13.5l1.32-.55A22,22,0,0,1,105.3.23l3.44-.16,3.37.63,7.32,1.94L123,3.94l2.26,1,1.85,1.18,2.06,1.76L131.34,10l2,3.47a10.3,10.3,0,0,1,1.29,3.87v3.23l-.48,2.62a33.72,33.72,0,0,1-1.92,3.37,7,7,0,0,1-3,1.84l-2.91.63a17.4,17.4,0,0,1-4.87-1.25Z"/><path id="path4248-19" class="cls-6" d="M100.58,193.05l-1.24-1.63L98,188.79l-1.2-3.4-2-5.32-1.24-4.32-1-3.82L91.75,168l-.55-5.14v-5.16l.49-2.33.73-1.56.92-.61c6.16,9.92,12.21,20,17.94,30.51.73-.09,1.88.72,1.89-.92-5.76-10.23-11.69-20.33-18-30.18l2.41.55c1.28.48,2.67,1.06,4.25,1.81l5.28,2.76,4.55,3.5,9.41,8.19,4.37,4.4,2.61,2.89,1.82,2.78,1.67,3.55,1.42,4,.13,5.21a9.58,9.58,0,0,1-1.2,5.07l-2.62,3.31L126.44,203a54.05,54.05,0,0,1-5.61,1.82,15.53,15.53,0,0,1-5.93-.62L110,202.35a35,35,0,0,1-6.29-5.42Z"/></g></g></g></g></svg>