<svg id="Capa_1" data-name="Capa 1" xmlns="http://www.w3.org/2000/svg" viewBox="0 0 500 500"><defs><style>.cls-1{fill:#228da8;}</style></defs><path class="cls-1" d="M166.69,250A83.33,83.33,0,1,1,250,333.34,83.33,83.33,0,0,1,166.69,250m-45.06,0A128.38,128.38,0,1,0,250,121.62,128.38,128.38,0,0,0,121.63,250M353.47,116.53a30,30,0,1,0,30-30,30,30,0,0,0-30,30M149,453.5c-24.38-1.11-37.63-5.17-46.43-8.6a77.84,77.84,0,0,1-28.76-18.7,77.36,77.36,0,0,1-18.7-28.74c-3.43-8.8-7.49-22-8.6-46.43-1.21-26.35-1.46-34.27-1.46-101s.27-74.66,1.46-101c1.11-24.38,5.19-37.61,8.6-46.43a78,78,0,0,1,18.7-28.76,77.27,77.27,0,0,1,28.76-18.7c8.8-3.43,22.05-7.49,46.43-8.6C175.35,45.27,183.27,45,250,45s74.66.27,101,1.46c24.38,1.11,37.61,5.19,46.43,8.6a77.59,77.59,0,0,1,28.76,18.7,77.68,77.68,0,0,1,18.7,28.76c3.43,8.8,7.49,22,8.6,46.43,1.21,26.37,1.46,34.27,1.46,101s-.25,74.66-1.46,101c-1.11,24.38-5.19,37.63-8.6,46.43a82.76,82.76,0,0,1-47.46,47.44c-8.8,3.43-22.05,7.49-46.43,8.6-26.35,1.21-34.27,1.46-101,1.46s-74.66-.25-101-1.46m-2.06-452c-26.62,1.22-44.8,5.44-60.69,11.62A122.74,122.74,0,0,0,42,42,122.4,122.4,0,0,0,13.13,86.24C7,102.13,2.73,120.31,1.51,146.93S0,182.11,0,250s.28,76.42,1.51,103.07S7,397.87,13.13,413.76A122.3,122.3,0,0,0,42,458.05a122.66,122.66,0,0,0,44.29,28.83c15.91,6.18,34.07,10.4,60.69,11.62S182.12,500,250,500s76.42-.28,103.07-1.51,44.8-5.44,60.69-11.62a127.74,127.74,0,0,0,73.12-73.12c6.18-15.89,10.42-34.07,11.62-60.69S500,317.89,500,250s-.28-76.42-1.49-103.07-5.44-44.8-11.62-60.69A123,123,0,0,0,458.06,42a122.66,122.66,0,0,0-44.27-28.83C397.88,6.94,379.7,2.7,353.1,1.5S317.92,0,250,0,173.61.27,146.94,1.5"/></svg>