<svg id="Capa_1" data-name="Capa 1" xmlns="http://www.w3.org/2000/svg" viewBox="0 0 494.46 494.46"><defs><style>.cls-1{fill:#f5a863;}.cls-2{fill:#1d1d1b;}</style></defs><circle class="cls-1" cx="247.23" cy="247.23" r="247.23"/><path class="cls-2" d="M162.16,240.38v17.16h21.7v10.93h-21.7v11.84c0,12.9-8.51,24-21.86,24-4.86,0-12-1.06-17.16-4.55V287.9c4,3.94,10.33,5.61,15.64,5.61,7.29,0,11.69-6.37,11.69-13.2V268.47H128.61V257.54h21.86V240.38c0-14.57,6.67-29,21.1-34.3H119.05c-10.93,0-20.34,4.7-20.34,16.85,0,10.62,9.71,15.63,19.12,16.09l-3,10.93C99,248.88,86.86,239.47,86.86,222.77c0-18.67,15.79-27.62,33-27.62h76.92v10.77c-.61,0-5,0-5.58.05C173.1,206.94,162.16,222.31,162.16,240.38Z" transform="translate(-2.85 -2.54)"/><path class="cls-2" d="M221.88,294.73c5,0,11.08-1.22,15.78-4.86V300.8c-4.85,2.58-11.08,3.49-15.63,3.49-17.15,0-30.51-11.84-30.51-28.39,0-15,12.44-27.93,27.47-27.93,10,0,17.31,4.25,23.38,11.84l-32,31.88A21.8,21.8,0,0,0,221.88,294.73ZM201.53,275.9a17.35,17.35,0,0,0,2.74,9.72l24.28-24.44a16.68,16.68,0,0,0-9.86-3.64C208.52,257.54,201.53,266,201.53,275.9Z" transform="translate(-2.85 -2.54)"/><path class="cls-2" d="M286.17,256.93a9,9,0,0,1-9,9,8.55,8.55,0,0,1-7.74-5.32c-4.86,2.43-7.74,7.44-8.2,13.51v28.84H250.2V249.34h11.07v9c3-5.77,8.81-10.33,15.49-10.33A9.18,9.18,0,0,1,286.17,256.93Z" transform="translate(-2.85 -2.54)"/><path class="cls-2" d="M289.73,219.74a8.35,8.35,0,1,1,16.7,0,8.33,8.33,0,0,1-8.35,8.35A8.42,8.42,0,0,1,289.73,219.74Zm17.76,84.55c-9.26,0-14.88-7.89-14.88-16.55v-38.4h10.93v37.34c0,4.25,2.73,7.59,7.29,7.59a11,11,0,0,0,7.89-3v9.86A18.92,18.92,0,0,1,307.49,304.29Z" transform="translate(-2.85 -2.54)"/><path class="cls-2" d="M392.7,291.24v10a19.37,19.37,0,0,1-11.23,3.19c-6.83,0-12.3-4.55-14.12-11.69A22.88,22.88,0,0,1,347,304.29c-15.64,0-26.87-12.9-26.87-28.23S331.37,248,347,248a23.16,23.16,0,0,1,19.58,10v-8.65h11.08v37.34c0,4.4,2.58,7.59,7.14,7.59A10.42,10.42,0,0,0,392.7,291.24Zm-26.11-19.43c-1.06-7.6-8.5-14.43-17.46-14.43-10.17,0-18.06,8.66-18.06,18.68s7.89,18.67,18.06,18.67c9.11,0,16.4-6.83,17.46-14.42Z" transform="translate(-2.85 -2.54)"/><path class="cls-2" d="M417.15,219.93a8.32,8.32,0,0,1-8.55,8.26,11.38,11.38,0,0,1-9.07-4.46l2.5-2.4a7.94,7.94,0,0,0,6.57,3.6,5.12,5.12,0,0,0,5.14-5,4.63,4.63,0,0,0-4.8-4.89,4.84,4.84,0,0,0-3.55,1.49l-2.16-2.74,8-7.59H400.34v-3.36h15.18l0,3.27-6.62,6.24a4.25,4.25,0,0,1,.77,0A7.46,7.46,0,0,1,417.15,219.93Z" transform="translate(-2.85 -2.54)"/><path class="cls-2" d="M377.49,214c0-3.3,2.35-5.7,5.29-6.7a5.88,5.88,0,0,1-3.74-5.2c0-4,3.79-6.84,7.94-6.84s7.9,2.8,7.9,6.84a5.71,5.71,0,0,1-3.8,5.2c3.1.95,5.35,3.3,5.35,6.7,0,5.14-4.1,8.14-9.45,8.14S377.49,219.09,377.49,214Zm15.34-.15c0-3-3.1-4.85-5.85-4.85s-5.84,1.8-5.84,4.85,2.59,4.89,5.84,4.89S392.83,216.8,392.83,213.85Zm-1.5-11.7a4.11,4.11,0,0,0-4.35-3.84c-2.4,0-4.4,1.65-4.4,3.84s2.3,3.7,4.4,3.7S391.33,204.4,391.33,202.15Z" transform="translate(-2.85 -2.54)"/></svg>