<svg id="Capa_1" data-name="Capa 1" xmlns="http://www.w3.org/2000/svg" viewBox="0 0 500 500"><defs><style>.cls-1{fill:#228da8;}</style></defs><path class="cls-1" d="M98.33,55.56a342.69,342.69,0,0,0,12.5,71.94L77.5,160.83A411.74,411.74,0,0,1,56.39,55.56H98.33M372.22,389.44a353.57,353.57,0,0,0,72.22,12.5v41.39A428.57,428.57,0,0,1,338.89,422.5l33.33-33.06M125,0H27.78A27.86,27.86,0,0,0,0,27.78C0,288.61,211.39,500,472.22,500A27.86,27.86,0,0,0,500,472.22V375.28a27.86,27.86,0,0,0-27.78-27.78,317.06,317.06,0,0,1-99.16-15.83,23.39,23.39,0,0,0-8.62-1.39,28.49,28.49,0,0,0-19.72,8.05l-61.11,61.11a420.74,420.74,0,0,1-183-183l61.11-61.11a27.89,27.89,0,0,0,6.94-28.34,315.46,315.46,0,0,1-15.83-99.16A27.86,27.86,0,0,0,125,0Z"/></svg>