<svg id="Capa_1" data-name="Capa 1" xmlns="http://www.w3.org/2000/svg" viewBox="0 0 500 500"><defs><style>.cls-1{fill:#228da8;}</style></defs><path class="cls-1" d="M125.12,218.57a62.57,62.57,0,1,0,62.47,62.56,62.58,62.58,0,0,0-62.47-62.56Zm0,107.36a44.8,44.8,0,1,1,44.7-44.8A44.8,44.8,0,0,1,125.12,325.93Z"/><circle class="cls-1" cx="125.32" cy="281.04" r="31.13"/><path class="cls-1" d="M375,218.57a62.57,62.57,0,1,0,62.56,62.56A62.57,62.57,0,0,0,375,218.57Zm0,107.36a44.8,44.8,0,1,1,44.7-44.8A44.8,44.8,0,0,1,375,325.93Z"/><circle class="cls-1" cx="375.17" cy="281.04" r="31.13"/><path class="cls-1" d="M463,192.51,499.8,156H425.24c-41.77-34-111.17-62.27-175.48-62.27S116.53,122.05,74.76,156H0l36.79,36.5a125.11,125.11,0,0,0,171.1,182.42l42.35,31.13,41.87-30.45-.48-1.17A125,125,0,0,0,463,192.51ZM359.16,157A125.08,125.08,0,0,0,250,273.62,125.1,125.1,0,0,0,140.35,157c29.86-21.47,67.93-32,109.41-32S329.3,135.52,359.16,157Zm-234,218A93.89,93.89,0,1,1,219,281.13,93.86,93.86,0,0,1,125.12,375ZM375,375a93.89,93.89,0,1,1,93.89-93.89A93.92,93.92,0,0,1,375,375Z"/></svg>